<?xml version="1.0" standalone="no"?>
<!DOCTYPE svg PUBLIC "-//W3C//DTD SVG 20010904//EN"
 "http://www.w3.org/TR/2001/REC-SVG-20010904/DTD/svg10.dtd">
<svg version="1.0" xmlns="http://www.w3.org/2000/svg"
 width="512.000000pt" height="512.000000pt" viewBox="0 0 512.000000 512.000000"
 preserveAspectRatio="xMidYMid meet">
<metadata>
Created by potrace 1.11, written by Peter Selinger 2001-2013
</metadata>
<g transform="translate(0.000000,512.000000) scale(0.100000,-0.100000)"
fill="#000000" stroke="none">
<path d="M2493 5102 c-17 -9 -42 -30 -55 -47 l-23 -29 -3 -563 -3 -563 -27 -6
c-329 -71 -568 -238 -724 -504 -60 -103 -109 -228 -124 -320 -12 -65 8 -60
-257 -61 -133 -1 -246 -2 -252 -3 -31 -4 -77 -42 -95 -76 -18 -36 -20 -59 -20
-280 l0 -240 -318 0 c-234 0 -331 -4 -370 -13 -134 -35 -223 -157 -218 -300 5
-141 111 -259 254 -282 l42 -7 0 -604 0 -604 -93 0 c-110 0 -150 -17 -185 -76
-21 -37 -22 -49 -21 -225 1 -205 7 -232 63 -272 l31 -22 2453 -2 c2720 -3
2495 -9 2545 61 21 29 22 43 25 223 4 214 -2 243 -62 286 -26 18 -47 22 -133
25 l-103 4 0 604 0 604 25 0 c46 0 136 41 181 84 148 140 114 381 -68 482
l-53 29 -347 3 -347 3 -3 254 c-3 238 -4 255 -24 282 -43 59 -64 63 -335 63
l-246 0 -13 58 c-90 403 -382 709 -773 810 l-107 27 0 152 0 153 393 0 c363 0
395 1 427 19 19 10 44 30 55 45 19 26 20 44 23 383 l3 356 -26 39 c-46 69 -38
68 -577 68 -436 -1 -486 -3 -515 -18z"/>
</g>
</svg>
